<?xml version="1.0" encoding="UTF-8" standalone="no"?>
<!-- Created with Inkscape (http://www.inkscape.org/) -->

<svg
   version="1.1"
   id="svg1"
   width="344.11566"
   height="242.20702"
   viewBox="0 0 344.11566 242.20702"
   sodipodi:docname="complexity-overview.svg"
   inkscape:version="1.3.2 (091e20ef0f, 2023-11-25)"
   xmlns:inkscape="http://www.inkscape.org/namespaces/inkscape"
   xmlns:sodipodi="http://sodipodi.sourceforge.net/DTD/sodipodi-0.dtd"
   xmlns="http://www.w3.org/2000/svg"
   xmlns:svg="http://www.w3.org/2000/svg">
  <defs
     id="defs1">
    <clipPath
       clipPathUnits="userSpaceOnUse"
       id="clipPath5">
      <path
         d="M 0,0 H 259 V 182 H 0 Z"
         id="path5" />
    </clipPath>
    <clipPath
       clipPathUnits="userSpaceOnUse"
       id="clipPath7">
      <path
         d="M 1.594,14.801 H 195.867 V 176.199 H 1.594 Z"
         transform="scale(1.3333333)"
         id="path7" />
    </clipPath>
    <clipPath
       clipPathUnits="userSpaceOnUse"
       id="clipPath8">
      <path
         d="M 0,0 H 259 V 182 H 0 Z"
         id="path8" />
    </clipPath>
    <clipPath
       clipPathUnits="userSpaceOnUse"
       id="clipPath10">
      <path
         d="M 1.594,14.801 H 195.867 V 176.199 H 1.594 Z"
         transform="scale(1.3333333)"
         id="path10" />
    </clipPath>
    <clipPath
       clipPathUnits="userSpaceOnUse"
       id="clipPath11">
      <path
         d="M 0,0 H 259 V 182 H 0 Z"
         id="path11" />
    </clipPath>
    <clipPath
       clipPathUnits="userSpaceOnUse"
       id="clipPath13">
      <path
         d="M 1.594,14.801 H 195.867 V 176.199 H 1.594 Z"
         transform="scale(1.3333333)"
         id="path13" />
    </clipPath>
    <clipPath
       clipPathUnits="userSpaceOnUse"
       id="clipPath14">
      <path
         d="M 0,0 H 259 V 182 H 0 Z"
         id="path14" />
    </clipPath>
    <clipPath
       clipPathUnits="userSpaceOnUse"
       id="clipPath16">
      <path
         d="M 1.594,14.801 H 195.867 V 176.199 H 1.594 Z"
         transform="scale(1.3333333)"
         id="path16" />
    </clipPath>
    <clipPath
       clipPathUnits="userSpaceOnUse"
       id="clipPath17">
      <path
         d="M 0,0 H 259 V 182 H 0 Z"
         id="path17" />
    </clipPath>
    <clipPath
       clipPathUnits="userSpaceOnUse"
       id="clipPath19">
      <path
         d="M 1.594,14.801 H 195.867 V 176.199 H 1.594 Z"
         transform="scale(1.3333333)"
         id="path19" />
    </clipPath>
    <clipPath
       clipPathUnits="userSpaceOnUse"
       id="clipPath20">
      <path
         d="M 0,0 H 259 V 182 H 0 Z"
         id="path20" />
    </clipPath>
    <clipPath
       clipPathUnits="userSpaceOnUse"
       id="clipPath22">
      <path
         d="M 1.594,14.801 H 195.867 V 176.199 H 1.594 Z"
         transform="scale(1.3333333)"
         id="path22" />
    </clipPath>
    <clipPath
       clipPathUnits="userSpaceOnUse"
       id="clipPath23">
      <path
         d="M 0,0 H 259 V 182 H 0 Z"
         transform="scale(1,-1)"
         id="path23" />
    </clipPath>
    <clipPath
       clipPathUnits="userSpaceOnUse"
       id="clipPath25">
      <path
         d="M 1.594,14.801 H 195.867 V 176.199 H 1.594 Z"
         transform="scale(1.3333333)"
         id="path25" />
    </clipPath>
    <clipPath
       clipPathUnits="userSpaceOnUse"
       id="clipPath26">
      <path
         d="M 0,0 H 259 V 182 H 0 Z"
         transform="scale(1,-1)"
         id="path26" />
    </clipPath>
    <clipPath
       clipPathUnits="userSpaceOnUse"
       id="clipPath28">
      <path
         d="M 1.594,14.801 H 195.867 V 176.199 H 1.594 Z"
         transform="scale(1.3333333)"
         id="path28" />
    </clipPath>
    <clipPath
       clipPathUnits="userSpaceOnUse"
       id="clipPath29">
      <path
         d="M 0,0 H 259 V 182 H 0 Z"
         transform="scale(1,-1)"
         id="path29" />
    </clipPath>
    <clipPath
       clipPathUnits="userSpaceOnUse"
       id="clipPath31">
      <path
         d="M 1.594,14.801 H 195.867 V 176.199 H 1.594 Z"
         transform="scale(1.3333333)"
         id="path31" />
    </clipPath>
    <clipPath
       clipPathUnits="userSpaceOnUse"
       id="clipPath32">
      <path
         d="M 0,0 H 259 V 182 H 0 Z"
         transform="scale(1,-1)"
         id="path32" />
    </clipPath>
    <clipPath
       clipPathUnits="userSpaceOnUse"
       id="clipPath34">
      <path
         d="M 1.594,14.801 H 195.867 V 176.199 H 1.594 Z"
         transform="scale(1.3333333)"
         id="path34" />
    </clipPath>
    <clipPath
       clipPathUnits="userSpaceOnUse"
       id="clipPath35">
      <path
         d="M 0,0 H 259 V 182 H 0 Z"
         transform="scale(1,-1)"
         id="path35" />
    </clipPath>
    <clipPath
       clipPathUnits="userSpaceOnUse"
       id="clipPath37">
      <path
         d="M 1.594,14.801 H 195.867 V 176.199 H 1.594 Z"
         transform="scale(1.3333333)"
         id="path37" />
    </clipPath>
    <clipPath
       clipPathUnits="userSpaceOnUse"
       id="clipPath38">
      <path
         d="M 0,0 H 259 V 182 H 0 Z"
         transform="scale(1,-1)"
         id="path38" />
    </clipPath>
    <clipPath
       clipPathUnits="userSpaceOnUse"
       id="clipPath40">
      <path
         d="M 1.594,14.801 H 195.867 V 176.199 H 1.594 Z"
         transform="scale(1.3333333)"
         id="path40" />
    </clipPath>
    <clipPath
       clipPathUnits="userSpaceOnUse"
       id="clipPath41">
      <path
         d="M 0,0 H 259 V 182 H 0 Z"
         transform="scale(1,-1)"
         id="path41" />
    </clipPath>
    <clipPath
       clipPathUnits="userSpaceOnUse"
       id="clipPath43">
      <path
         d="M 1.594,14.801 H 195.867 V 176.199 H 1.594 Z"
         transform="scale(1.3333333)"
         id="path43" />
    </clipPath>
    <clipPath
       clipPathUnits="userSpaceOnUse"
       id="clipPath44">
      <path
         d="M 0,0 H 259 V 182 H 0 Z"
         transform="scale(1,-1)"
         id="path44" />
    </clipPath>
    <clipPath
       clipPathUnits="userSpaceOnUse"
       id="clipPath46">
      <path
         d="M 1.594,14.801 H 195.867 V 176.199 H 1.594 Z"
         transform="scale(1.3333333)"
         id="path46" />
    </clipPath>
    <clipPath
       clipPathUnits="userSpaceOnUse"
       id="clipPath47">
      <path
         d="M 0,0 H 259 V 182 H 0 Z"
         transform="scale(1,-1)"
         id="path47" />
    </clipPath>
    <clipPath
       clipPathUnits="userSpaceOnUse"
       id="clipPath49">
      <path
         d="M 1.594,14.801 H 195.867 V 176.199 H 1.594 Z"
         transform="scale(1.3333333)"
         id="path49" />
    </clipPath>
    <clipPath
       clipPathUnits="userSpaceOnUse"
       id="clipPath50">
      <path
         d="M 0,0 H 259 V 182 H 0 Z"
         transform="scale(1,-1)"
         id="path50" />
    </clipPath>
    <clipPath
       clipPathUnits="userSpaceOnUse"
       id="clipPath52">
      <path
         d="M 1.594,14.801 H 195.867 V 176.199 H 1.594 Z"
         transform="scale(1.3333333)"
         id="path52" />
    </clipPath>
    <clipPath
       clipPathUnits="userSpaceOnUse"
       id="clipPath53">
      <path
         d="M 0,0 H 259 V 182 H 0 Z"
         transform="scale(1,-1)"
         id="path53" />
    </clipPath>
    <clipPath
       clipPathUnits="userSpaceOnUse"
       id="clipPath55">
      <path
         d="M 1.594,14.801 H 195.867 V 176.199 H 1.594 Z"
         transform="scale(1.3333333)"
         id="path55" />
    </clipPath>
    <clipPath
       clipPathUnits="userSpaceOnUse"
       id="clipPath56">
      <path
         d="M 0,0 H 259 V 182 H 0 Z"
         transform="scale(1,-1)"
         id="path56" />
    </clipPath>
    <clipPath
       clipPathUnits="userSpaceOnUse"
       id="clipPath58">
      <path
         d="M 1.594,14.801 H 195.867 V 176.199 H 1.594 Z"
         transform="scale(1.3333333)"
         id="path58" />
    </clipPath>
    <clipPath
       clipPathUnits="userSpaceOnUse"
       id="clipPath59">
      <path
         d="M 0,0 H 259 V 182 H 0 Z"
         transform="scale(1,-1)"
         id="path59" />
    </clipPath>
    <clipPath
       clipPathUnits="userSpaceOnUse"
       id="clipPath61">
      <path
         d="M 1.594,14.801 H 195.867 V 176.199 H 1.594 Z"
         transform="scale(1.3333333)"
         id="path61" />
    </clipPath>
    <clipPath
       clipPathUnits="userSpaceOnUse"
       id="clipPath62">
      <path
         d="M 0,0 H 259 V 182 H 0 Z"
         transform="scale(1,-1)"
         id="path62" />
    </clipPath>
    <clipPath
       clipPathUnits="userSpaceOnUse"
       id="clipPath64">
      <path
         d="M 1.594,14.801 H 195.867 V 176.199 H 1.594 Z"
         transform="scale(1.3333333)"
         id="path64" />
    </clipPath>
    <clipPath
       clipPathUnits="userSpaceOnUse"
       id="clipPath65">
      <path
         d="M 0,0 H 259 V 182 H 0 Z"
         transform="scale(1,-1)"
         id="path65" />
    </clipPath>
    <clipPath
       clipPathUnits="userSpaceOnUse"
       id="clipPath67">
      <path
         d="M 1.594,14.801 H 195.867 V 176.199 H 1.594 Z"
         transform="scale(1.3333333)"
         id="path67" />
    </clipPath>
    <clipPath
       clipPathUnits="userSpaceOnUse"
       id="clipPath68">
      <path
         d="M 0,0 H 259 V 182 H 0 Z"
         transform="scale(1,-1)"
         id="path68" />
    </clipPath>
    <clipPath
       clipPathUnits="userSpaceOnUse"
       id="clipPath70">
      <path
         d="M 1.594,14.801 H 195.867 V 176.199 H 1.594 Z"
         transform="scale(1.3333333)"
         id="path70" />
    </clipPath>
    <clipPath
       clipPathUnits="userSpaceOnUse"
       id="clipPath71">
      <path
         d="M 0,0 H 259 V 182 H 0 Z"
         transform="scale(1,-1)"
         id="path71" />
    </clipPath>
    <clipPath
       clipPathUnits="userSpaceOnUse"
       id="clipPath73">
      <path
         d="M 1.594,14.801 H 195.867 V 176.199 H 1.594 Z"
         transform="scale(1.3333333)"
         id="path73" />
    </clipPath>
    <clipPath
       clipPathUnits="userSpaceOnUse"
       id="clipPath74">
      <path
         d="M 0,0 H 259 V 182 H 0 Z"
         transform="scale(1,-1)"
         id="path74" />
    </clipPath>
    <clipPath
       clipPathUnits="userSpaceOnUse"
       id="clipPath76">
      <path
         d="M 1.594,14.801 H 195.867 V 176.199 H 1.594 Z"
         transform="scale(1.3333333)"
         id="path76" />
    </clipPath>
  </defs>
  <sodipodi:namedview
     id="namedview1"
     pagecolor="#ffffff"
     bordercolor="#666666"
     borderopacity="1.0"
     inkscape:showpageshadow="2"
     inkscape:pageopacity="0.0"
     inkscape:pagecheckerboard="0"
     inkscape:deskcolor="#d1d1d1"
     inkscape:zoom="3.2779676"
     inkscape:cx="172.05783"
     inkscape:cy="120.9591"
     inkscape:window-width="1920"
     inkscape:window-height="1011"
     inkscape:window-x="0"
     inkscape:window-y="0"
     inkscape:window-maximized="1"
     inkscape:current-layer="g1">
    <inkscape:page
       x="0"
       y="0"
       inkscape:label="1"
       id="page1"
       width="344.11566"
       height="242.20702"
       margin="0"
       bleed="0" />
  </sodipodi:namedview>
  <g
     id="g1"
     inkscape:groupmode="layer"
     inkscape:label="1">
    <path
       id="path1"
       d="M 1.594,176.199 H 193.875"
       style="fill:none;stroke:#000000;stroke-width:0.3985;stroke-linecap:butt;stroke-linejoin:miter;stroke-miterlimit:10;stroke-dasharray:none;stroke-opacity:1"
       transform="scale(1.3333333)" />
    <path
       id="path2"
       d="m 195.867,176.199 -3.187,-1.597 1.195,1.597 -1.195,1.594"
       style="fill:#000000;fill-opacity:1;fill-rule:nonzero;stroke:none"
       transform="scale(1.3333333)" />
    <path
       id="path3"
       d="M 1.594,176.199 V 16.793"
       style="fill:none;stroke:#000000;stroke-width:0.3985;stroke-linecap:butt;stroke-linejoin:miter;stroke-miterlimit:10;stroke-dasharray:none;stroke-opacity:1"
       transform="scale(1.3333333)" />
    <path
       id="path4"
       d="M 1.594,14.801 0,17.988 1.594,16.793 3.188,17.988"
       style="fill:#000000;fill-opacity:1;fill-rule:nonzero;stroke:none"
       transform="scale(1.3333333)" />
    <g
       id="g6"
       clip-path="url(#clipPath7)">
      <path
         d="m 1.594,174.988 h 194.273 v 1.109 H 1.594 Z"
         style="fill:#ffb3b3;fill-opacity:1;fill-rule:nonzero;stroke:none"
         transform="scale(1.3333333)"
         clip-path="url(#clipPath5)"
         id="path6" />
    </g>
    <g
       id="g9"
       clip-path="url(#clipPath10)">
      <path
         d="m 9.363,176.828 7.774,-1.957 7.769,-1.144 7.77,-0.813 7.773,-0.633 7.77,-0.515 7.769,-0.434 7.774,-0.379 7.769,-0.332 7.77,-0.297 7.773,-0.269 7.77,-0.246 7.769,-0.227 7.774,-0.207 7.769,-0.195 7.77,-0.184 7.773,-0.172 7.77,-0.16 7.769,-0.152 7.774,-0.145 7.769,-0.137 7.77,-0.132 7.769,-0.125 7.774,-0.121 7.769,-0.114 v 4.43 l -7.769,0.055 -7.774,0.058 -7.769,0.059 -7.77,0.062 -7.769,0.067 -7.774,0.07 -7.769,0.07 -7.77,0.079 -7.773,0.082 -7.77,0.085 -7.769,0.094 -7.774,0.098 -7.769,0.109 -7.77,0.117 -7.773,0.129 -7.77,0.141 -7.769,0.156 -7.774,0.18 -7.769,0.207 -7.77,0.246 -7.773,0.301 -7.77,0.387 -7.769,0.546 -7.774,0.93 z"
         style="fill:#ccccff;fill-opacity:1;fill-rule:nonzero;stroke:none"
         transform="scale(1.3333333)"
         clip-path="url(#clipPath8)"
         id="path9" />
    </g>
    <g
       id="g12"
       clip-path="url(#clipPath13)">
      <path
         d="m 1.594,176.199 8.094,-2.019 8.097,-2.016 8.094,-2.019 8.094,-2.016 8.093,-2.02 8.094,-2.015 8.098,-2.02 8.094,-2.015 8.093,-2.02 8.094,-2.016 8.098,-2.019 8.093,-2.016 8.094,-2.019 8.094,-2.016 8.094,-2.019 8.097,-2.016 8.094,-2.016 8.094,-2.019 8.094,-2.016 8.097,-2.019 8.094,-2.016 8.094,-2.02 8.094,-2.015 8.097,-2.02 v 14.797 l -8.097,1.399 -16.188,2.804 -8.094,1.399 -8.097,1.402 -8.094,1.402 -8.094,1.399 -8.094,1.402 -8.097,1.403 -8.094,1.398 -16.188,2.805 -8.093,1.398 -8.098,1.403 -8.094,1.402 -8.093,1.398 -8.094,1.403 -8.098,1.402 -8.094,1.398 -16.187,2.805 -8.094,1.399 -8.097,1.402 z"
         style="fill:#ccffcc;fill-opacity:1;fill-rule:nonzero;stroke:none"
         transform="scale(1.3333333)"
         clip-path="url(#clipPath11)"
         id="path12" />
    </g>
    <g
       id="g15"
       clip-path="url(#clipPath16)">
      <path
         d="m 1.594,176.199 8.094,0.352 8.097,-2.328 8.094,-3.34 8.094,-3.996 8.093,-4.485 8.094,-4.875 8.098,-5.199 8.094,-5.473 8.093,-5.714 8.094,-5.938 8.098,-6.125 8.093,-6.301 8.094,-6.465 8.094,-6.613 8.094,-6.75 8.097,-6.879 8.094,-7 8.094,-7.113 8.094,-7.223 8.097,-7.32 8.094,-7.422 8.094,-7.512 8.094,-7.601 8.097,-7.68 v 33.895 l -8.097,5.808 -8.094,5.746 -8.094,5.684 -8.094,5.609 -8.097,5.536 -8.094,5.461 -8.094,5.378 -8.094,5.293 -8.097,5.203 -8.094,5.106 -8.094,5 -8.094,4.887 -8.093,4.765 -8.098,4.629 -8.094,4.489 -8.093,4.324 -8.094,4.136 -8.098,3.934 -8.094,3.684 -8.093,3.39 -8.094,3.024 -8.094,2.523 -8.097,1.762 z"
         style="fill:#e6f5f0;fill-opacity:1;fill-rule:nonzero;stroke:none"
         transform="scale(1.3333333)"
         clip-path="url(#clipPath14)"
         id="path15" />
    </g>
    <g
       id="g18"
       clip-path="url(#clipPath19)">
      <path
         d="m 1.594,176.199 8.094,-1.683 8.097,-5.043 8.094,-8.407 8.094,-11.769 8.093,-15.129 8.094,-18.492 8.098,-21.856 8.094,-25.218 8.093,-28.582 8.094,-31.942 8.098,-35.305 8.093,-38.668 8.094,-42.031 8.094,-45.39 8.094,-48.758 8.097,-52.117 8.094,-55.481 8.094,-58.84 8.094,-62.207 8.097,-65.566 8.094,-68.93 8.094,-72.289 8.094,-75.656 8.097,-79.016 v 295.895 l -8.097,54.871 -8.094,52.539 -8.094,50.203 -8.094,47.867 -8.097,45.531 -8.094,43.196 -8.094,40.863 -8.094,38.531 -8.097,36.192 -8.094,33.855 -8.094,31.524 -8.094,29.187 -8.093,26.852 -8.098,24.515 -8.094,22.184 -8.093,19.848 -8.094,17.511 -8.098,15.18 -8.094,12.84 -8.093,10.508 -8.094,8.175 -8.094,5.836 -8.097,3.504 z"
         style="fill:#f0f5e6;fill-opacity:1;fill-rule:nonzero;stroke:none"
         transform="scale(1.3333333)"
         clip-path="url(#clipPath17)"
         id="path18" />
    </g>
    <g
       id="g21"
       clip-path="url(#clipPath22)">
      <path
         d="m 1.594,173.777 4.047,-0.812 4.047,-1.082 4.046,-1.442 4.047,-1.929 4.051,-2.571 4.047,-3.433 4.047,-4.586 4.047,-6.117 4.047,-8.164 4.046,-10.903 4.047,-14.547 4.047,-19.418 4.047,-25.921 4.047,-34.598 4.051,-46.184 4.047,-61.648 4.046,-82.277 4.047,-109.817 4.047,-146.59 4.047,-195.668 4.047,-261.172 4.047,-348.586 4.047,-465.304 4.047,-621.18 v 756.688 l -4.047,431.355 -4.047,323.125 -4.047,242.078 -4.047,181.367 -4.047,135.883 -4.047,101.797 -4.047,76.262 -4.046,57.137 -4.047,42.812 -4.051,32.07 -4.047,24.028 -4.047,18 -4.047,13.484 -4.047,10.106 -4.046,7.57 -4.047,5.668 -4.047,4.25 -4.047,3.183 -4.047,2.383 -4.051,1.785 -4.047,1.34 -4.046,1.004 -4.047,0.75 -4.047,0.563 z"
         style="fill:#f0e6f5;fill-opacity:1;fill-rule:nonzero;stroke:none"
         transform="scale(1.3333333)"
         clip-path="url(#clipPath20)"
         id="path21" />
    </g>
    <g
       id="g24"
       clip-path="url(#clipPath25)">
      <path
         d="M 1.594,-174.988 H 195.867"
         style="fill:none;stroke:#808080;stroke-width:0.28346;stroke-linecap:butt;stroke-linejoin:miter;stroke-miterlimit:10;stroke-dasharray:2.98883, 2.98883;stroke-dashoffset:0;stroke-opacity:1"
         transform="scale(1.3333333,-1.3333333)"
         clip-path="url(#clipPath23)"
         id="path24" />
    </g>
    <g
       id="g27"
       clip-path="url(#clipPath28)">
      <path
         d="M 1.594,-176.098 H 195.867"
         style="fill:none;stroke:#808080;stroke-width:0.28346;stroke-linecap:butt;stroke-linejoin:miter;stroke-miterlimit:10;stroke-dasharray:2.98883, 2.98883;stroke-dashoffset:0;stroke-opacity:1"
         transform="scale(1.3333333,-1.3333333)"
         clip-path="url(#clipPath26)"
         id="path27" />
    </g>
    <g
       id="g30"
       clip-path="url(#clipPath31)">
      <path
         d="m 9.363,-176.828 7.774,1.957 7.769,1.144 7.77,0.813 7.773,0.633 7.77,0.515 7.769,0.434 7.774,0.379 7.769,0.332 7.77,0.297 7.773,0.269 7.77,0.246 7.769,0.227 7.774,0.207 7.769,0.195 7.77,0.184 7.773,0.172 7.77,0.16 7.769,0.152 7.774,0.145 7.769,0.137 7.77,0.132 7.769,0.125 7.774,0.121 7.769,0.114"
         style="fill:none;stroke:#808080;stroke-width:0.28346;stroke-linecap:butt;stroke-linejoin:miter;stroke-miterlimit:10;stroke-dasharray:2.98883, 2.98883;stroke-dashoffset:0;stroke-opacity:1"
         transform="scale(1.3333333,-1.3333333)"
         clip-path="url(#clipPath29)"
         id="path30" />
    </g>
    <g
       id="g33"
       clip-path="url(#clipPath34)">
      <path
         d="m 9.363,-176.496 7.774,0.93 7.769,0.546 7.77,0.387 7.773,0.301 7.77,0.246 7.769,0.207 7.774,0.18 7.769,0.156 7.77,0.141 7.773,0.129 7.77,0.117 7.769,0.109 7.774,0.098 7.769,0.094 7.77,0.085 7.773,0.082 7.77,0.079 7.769,0.07 7.774,0.07 7.769,0.067 7.77,0.062 7.769,0.059 7.774,0.058 7.769,0.055"
         style="fill:none;stroke:#808080;stroke-width:0.28346;stroke-linecap:butt;stroke-linejoin:miter;stroke-miterlimit:10;stroke-dasharray:2.98883, 2.98883;stroke-dashoffset:0;stroke-opacity:1"
         transform="scale(1.3333333,-1.3333333)"
         clip-path="url(#clipPath32)"
         id="path33" />
    </g>
    <g
       id="g36"
       clip-path="url(#clipPath37)">
      <path
         d="m 1.594,-176.199 8.094,2.019 8.097,2.016 8.094,2.019 8.094,2.016 8.093,2.02 8.094,2.015 8.098,2.02 8.094,2.015 8.093,2.02 8.094,2.016 8.098,2.019 8.093,2.016 8.094,2.019 8.094,2.016 8.094,2.019 8.097,2.016 8.094,2.016 8.094,2.019 8.094,2.016 8.097,2.019 8.094,2.016 8.094,2.02 8.094,2.015 8.097,2.02"
         style="fill:none;stroke:#808080;stroke-width:0.28346;stroke-linecap:butt;stroke-linejoin:miter;stroke-miterlimit:10;stroke-dasharray:2.98883, 2.98883;stroke-dashoffset:0;stroke-opacity:1"
         transform="scale(1.3333333,-1.3333333)"
         clip-path="url(#clipPath35)"
         id="path36" />
    </g>
    <g
       id="g39"
       clip-path="url(#clipPath40)">
      <path
         d="m 1.594,-176.199 8.094,1.402 8.097,1.402 8.094,1.399 16.187,2.805 8.094,1.398 8.098,1.402 8.094,1.403 8.093,1.398 8.094,1.402 8.098,1.403 8.093,1.398 16.188,2.805 8.094,1.398 8.097,1.403 8.094,1.402 8.094,1.399 8.094,1.402 8.097,1.402 8.094,1.399 16.188,2.804 8.097,1.399"
         style="fill:none;stroke:#808080;stroke-width:0.28346;stroke-linecap:butt;stroke-linejoin:miter;stroke-miterlimit:10;stroke-dasharray:2.98883, 2.98883;stroke-dashoffset:0;stroke-opacity:1"
         transform="scale(1.3333333,-1.3333333)"
         clip-path="url(#clipPath38)"
         id="path39" />
    </g>
    <g
       id="g42"
       clip-path="url(#clipPath43)">
      <path
         d="m 1.594,-176.199 8.094,-0.352 8.097,2.328 8.094,3.34 8.094,3.996 8.093,4.485 8.094,4.875 8.098,5.199 8.094,5.473 8.093,5.714 8.094,5.938 8.098,6.125 8.093,6.301 8.094,6.465 8.094,6.613 8.094,6.75 8.097,6.879 8.094,7 8.094,7.113 8.094,7.223 8.097,7.32 8.094,7.422 8.094,7.512 8.094,7.601 8.097,7.68"
         style="fill:none;stroke:#808080;stroke-width:0.28346;stroke-linecap:butt;stroke-linejoin:miter;stroke-miterlimit:10;stroke-dasharray:2.98883, 2.98883;stroke-dashoffset:0;stroke-opacity:1"
         transform="scale(1.3333333,-1.3333333)"
         clip-path="url(#clipPath41)"
         id="path42" />
    </g>
    <g
       id="g45"
       clip-path="url(#clipPath46)">
      <path
         d="m 1.594,-176.199 8.094,-0.266 8.097,1.762 8.094,2.523 8.094,3.024 8.093,3.39 8.094,3.684 8.098,3.934 8.094,4.136 8.093,4.324 8.094,4.489 8.098,4.629 8.093,4.765 8.094,4.887 8.094,5 8.094,5.106 8.097,5.203 8.094,5.293 8.094,5.378 8.094,5.461 8.097,5.536 8.094,5.609 8.094,5.684 8.094,5.746 8.097,5.808"
         style="fill:none;stroke:#808080;stroke-width:0.28346;stroke-linecap:butt;stroke-linejoin:miter;stroke-miterlimit:10;stroke-dasharray:2.98883, 2.98883;stroke-dashoffset:0;stroke-opacity:1"
         transform="scale(1.3333333,-1.3333333)"
         clip-path="url(#clipPath44)"
         id="path45" />
    </g>
    <g
       id="g48"
       clip-path="url(#clipPath49)">
      <path
         d="m 1.594,-176.199 8.094,1.683 8.097,5.043 8.094,8.407 8.094,11.769 8.093,15.129 8.094,18.492 8.098,21.856 8.094,25.218 8.093,28.582 8.094,31.942 8.098,35.305 8.093,38.668 8.094,42.031 8.094,45.39 8.094,48.758 8.097,52.117 8.094,55.481 8.094,58.84 8.094,62.207 8.097,65.566 8.094,68.93 8.094,72.289 8.094,75.656 8.097,79.016"
         style="fill:none;stroke:#808080;stroke-width:0.28346;stroke-linecap:butt;stroke-linejoin:miter;stroke-miterlimit:10;stroke-dasharray:2.98883, 2.98883;stroke-dashoffset:0;stroke-opacity:1"
         transform="scale(1.3333333,-1.3333333)"
         clip-path="url(#clipPath47)"
         id="path48" />
    </g>
    <g
       id="g51"
       clip-path="url(#clipPath52)">
      <path
         d="m 1.594,-176.199 8.094,1.168 8.097,3.504 8.094,5.836 8.094,8.175 8.093,10.508 8.094,12.84 8.098,15.18 8.094,17.511 8.093,19.848 8.094,22.184 8.098,24.515 8.093,26.852 8.094,29.187 8.094,31.524 8.094,33.855 8.097,36.192 8.094,38.531 8.094,40.863 8.094,43.196 8.097,45.531 8.094,47.867 8.094,50.203 8.094,52.539 8.097,54.871"
         style="fill:none;stroke:#808080;stroke-width:0.28346;stroke-linecap:butt;stroke-linejoin:miter;stroke-miterlimit:10;stroke-dasharray:2.98883, 2.98883;stroke-dashoffset:0;stroke-opacity:1"
         transform="scale(1.3333333,-1.3333333)"
         clip-path="url(#clipPath50)"
         id="path51" />
    </g>
    <g
       id="g54"
       clip-path="url(#clipPath55)">
      <path
         d="m 1.594,-173.777 4.047,0.812 4.047,1.082 4.046,1.442 4.047,1.929 4.051,2.571 4.047,3.433 4.047,4.586 4.047,6.117 4.047,8.164 4.046,10.903 4.047,14.547 4.047,19.418 4.047,25.921 4.047,34.598 4.051,46.184 4.047,61.648 4.046,82.277 4.047,109.817 4.047,146.59 4.047,195.668 4.047,261.172 4.047,348.586 4.047,465.304 4.047,621.18"
         style="fill:none;stroke:#808080;stroke-width:0.28346;stroke-linecap:butt;stroke-linejoin:miter;stroke-miterlimit:10;stroke-dasharray:2.98883, 2.98883;stroke-dashoffset:0;stroke-opacity:1"
         transform="scale(1.3333333,-1.3333333)"
         clip-path="url(#clipPath53)"
         id="path54" />
    </g>
    <g
       id="g57"
       clip-path="url(#clipPath58)">
      <path
         d="m 1.594,-174.516 4.047,0.563 4.047,0.75 4.046,1.004 4.047,1.34 4.051,1.785 4.047,2.383 4.047,3.183 4.047,4.25 4.047,5.668 4.046,7.57 4.047,10.106 4.047,13.484 4.047,18 4.047,24.028 4.051,32.07 4.047,42.812 4.046,57.137 4.047,76.262 4.047,101.797 4.047,135.883 4.047,181.367 4.047,242.078 4.047,323.125 4.047,431.355"
         style="fill:none;stroke:#808080;stroke-width:0.28346;stroke-linecap:butt;stroke-linejoin:miter;stroke-miterlimit:10;stroke-dasharray:2.98883, 2.98883;stroke-dashoffset:0;stroke-opacity:1"
         transform="scale(1.3333333,-1.3333333)"
         clip-path="url(#clipPath56)"
         id="path57" />
    </g>
    <g
       id="g60"
       clip-path="url(#clipPath61)">
      <path
         d="M 1.594,-175.594 H 195.867"
         style="fill:none;stroke:#ff0000;stroke-width:1.41731;stroke-linecap:butt;stroke-linejoin:miter;stroke-miterlimit:10;stroke-dasharray:none;stroke-opacity:1"
         transform="scale(1.3333333,-1.3333333)"
         clip-path="url(#clipPath59)"
         id="path60" />
    </g>
    <g
       id="g63"
       clip-path="url(#clipPath64)">
      <path
         d="m 9.363,-176.648 7.774,1.398 7.769,0.82 7.77,0.578 7.773,0.45 7.77,0.371 7.769,0.308 7.774,0.27 7.769,0.238 7.77,0.211 7.773,0.195 7.77,0.176 7.769,0.16 7.774,0.149 7.769,0.14 7.77,0.129 7.773,0.121 7.77,0.118 7.769,0.109 7.774,0.102 7.769,0.101 7.77,0.094 7.769,0.09 7.774,0.086 7.769,0.082"
         style="fill:none;stroke:#1919ff;stroke-width:1.41731;stroke-linecap:butt;stroke-linejoin:miter;stroke-miterlimit:10;stroke-dasharray:none;stroke-opacity:1"
         transform="scale(1.3333333,-1.3333333)"
         clip-path="url(#clipPath62)"
         id="path63" />
    </g>
    <g
       id="g66"
       clip-path="url(#clipPath67)">
      <path
         d="m 1.594,-176.199 8.094,1.683 8.097,1.68 8.094,1.684 16.187,3.359 8.094,1.684 8.098,1.679 8.094,1.684 16.187,3.359 8.098,1.684 8.093,1.68 8.094,1.683 16.188,3.36 8.097,1.683 8.094,1.68 8.094,1.683 8.094,1.68 8.097,1.68 8.094,1.683 16.188,3.36 8.097,1.683"
         style="fill:none;stroke:#006600;stroke-width:1.41731;stroke-linecap:butt;stroke-linejoin:miter;stroke-miterlimit:10;stroke-dasharray:none;stroke-opacity:1"
         transform="scale(1.3333333,-1.3333333)"
         clip-path="url(#clipPath65)"
         id="path66" />
    </g>
    <g
       id="g69"
       clip-path="url(#clipPath70)">
      <path
         d="m 2.566,-176.66 8.055,0.324 8.051,2.141 8.055,2.961 8.054,3.507 8.055,3.915 8.055,4.246 8.054,4.519 8.055,4.754 8.051,4.961 8.054,5.148 8.055,5.309 8.055,5.465 8.055,5.598 8.054,5.73 8.055,5.844 8.051,5.957 8.054,6.062 8.055,6.157 8.055,6.25 8.054,6.339 8.055,6.418 8.055,6.5 8.051,6.578 8.054,6.645"
         style="fill:none;stroke:#006699;stroke-width:1.41731;stroke-linecap:butt;stroke-linejoin:miter;stroke-miterlimit:10;stroke-dasharray:none;stroke-opacity:1"
         transform="scale(1.3333333,-1.3333333)"
         clip-path="url(#clipPath68)"
         id="path69" />
    </g>
    <g
       id="g72"
       clip-path="url(#clipPath73)">
      <path
         d="m 1.594,-176.199 8.094,1.402 8.097,4.203 8.094,7.004 8.094,9.809 8.093,12.609 8.094,15.41 8.098,18.215 8.094,21.016 8.093,23.816 8.094,26.617 8.098,29.422 8.093,32.223 8.094,35.023 8.094,37.828 8.094,40.629 8.097,43.434 8.094,46.23 8.094,49.036 8.094,51.839 8.097,54.637 8.094,57.442 8.094,60.242 8.094,63.047 8.097,65.847"
         style="fill:none;stroke:#996600;stroke-width:1.41731;stroke-linecap:butt;stroke-linejoin:miter;stroke-miterlimit:10;stroke-dasharray:none;stroke-opacity:1"
         transform="scale(1.3333333,-1.3333333)"
         clip-path="url(#clipPath71)"
         id="path72" />
    </g>
    <g
       id="g75"
       clip-path="url(#clipPath76)">
      <path
         d="m 1.594,-174.18 4.047,0.676 4.047,0.902 4.046,1.204 4.047,1.605 4.051,2.145 4.047,2.859 4.047,3.82 4.047,5.098 4.047,6.805 4.046,9.086 4.047,12.121 4.047,16.183 4.047,21.602 4.047,28.832 4.051,38.484 4.047,51.371 4.046,68.567 4.047,91.515 4.047,122.157 4.047,163.058 4.047,217.641 4.047,290.492 4.047,387.75 4.047,517.648"
         style="fill:none;stroke:#990066;stroke-width:1.41731;stroke-linecap:butt;stroke-linejoin:miter;stroke-miterlimit:10;stroke-dasharray:none;stroke-opacity:1"
         transform="scale(1.3333333,-1.3333333)"
         clip-path="url(#clipPath74)"
         id="path75" />
    </g>
    <path
       id="path77"
       d="m 208.824,173.477 c 0,-0.727 -0.199,-2.239 -1.312,-2.239 -1.524,0 -3.2,3.071 -3.2,5.567 0,1.031 0.317,2.238 1.313,2.238 1.535,0 3.199,-3.129 3.199,-5.566 z m -3.351,1.488 c 0.187,-0.703 0.398,-1.57 0.832,-2.344 0.304,-0.539 0.703,-1.148 1.195,-1.148 0.539,0 0.598,0.703 0.598,1.324 0,0.527 -0.082,1.09 -0.352,2.168 z m 2.179,0.351 c -0.117,0.504 -0.351,1.43 -0.761,2.215 -0.387,0.739 -0.797,1.278 -1.266,1.278 -0.363,0 -0.586,-0.317 -0.586,-1.336 0,-0.457 0.059,-1.09 0.34,-2.157 z"
       style="fill:#ff0000;fill-opacity:1;fill-rule:nonzero;stroke:none"
       transform="scale(1.3333333)" />
    <path
       id="path78"
       d="m 212.23,170.746 c -0.339,0.328 -1.078,0.984 -1.582,2.332 -0.433,1.172 -0.503,2.32 -0.503,3.117 0,3.528 1.57,4.981 2.085,5.461 h 0.668 c -0.527,-0.527 -1.91,-1.933 -1.91,-5.461 0,-0.609 0.035,-1.886 0.481,-3.175 0.445,-1.266 1.066,-1.922 1.429,-2.274 z m 4.547,0.785 h -0.211 c -0.644,0.668 -1.546,0.692 -2.074,0.715 v 0.633 c 0.363,-0.012 0.879,-0.035 1.43,-0.258 v 5.672 h -1.371 v 0.633 h 3.597 v -0.633 h -1.371 z m 3.477,10.125 c 0.351,-0.328 1.078,-0.996 1.582,-2.332 0.434,-1.172 0.516,-2.332 0.516,-3.129 0,-3.515 -1.571,-4.968 -2.098,-5.449 h -0.668 c 0.527,0.516 1.91,1.934 1.91,5.449 0,0.61 -0.035,1.887 -0.48,3.176 -0.446,1.266 -1.067,1.922 -1.43,2.285 z"
       style="fill:#ff0000;fill-opacity:1;fill-rule:nonzero;stroke:none"
       transform="scale(1.3333333)" />
    <path
       id="path79"
       d="m 208.824,162.133 c 0,-0.727 -0.199,-2.238 -1.312,-2.238 -1.524,0 -3.2,3.07 -3.2,5.566 0,1.031 0.317,2.238 1.313,2.238 1.535,0 3.199,-3.129 3.199,-5.566 z m -3.351,1.488 c 0.187,-0.703 0.398,-1.57 0.832,-2.344 0.304,-0.539 0.703,-1.148 1.195,-1.148 0.539,0 0.598,0.703 0.598,1.324 0,0.527 -0.082,1.09 -0.352,2.168 z m 2.179,0.352 c -0.117,0.504 -0.351,1.429 -0.761,2.215 -0.387,0.738 -0.797,1.277 -1.266,1.277 -0.363,0 -0.586,-0.317 -0.586,-1.336 0,-0.457 0.059,-1.09 0.34,-2.156 z"
       style="fill:#1919ff;fill-opacity:1;fill-rule:nonzero;stroke:none"
       transform="scale(1.3333333)" />
    <path
       id="path80"
       d="m 212.23,159.402 c -0.339,0.328 -1.078,0.985 -1.582,2.332 -0.433,1.172 -0.503,2.321 -0.503,3.118 0,3.527 1.57,4.98 2.085,5.46 h 0.668 c -0.527,-0.527 -1.91,-1.933 -1.91,-5.46 0,-0.61 0.035,-1.887 0.481,-3.176 0.445,-1.266 1.066,-1.922 1.429,-2.274 z m 2.989,0.61 h -0.821 v 7.57 h 0.821 z m 6.031,5.168 c 0,-1.465 -1.09,-2.625 -2.391,-2.625 -1.347,0 -2.402,1.195 -2.402,2.625 0,1.441 1.113,2.519 2.391,2.519 1.312,0 2.402,-1.101 2.402,-2.519 z m -2.402,1.828 c -0.75,0 -1.536,-0.61 -1.536,-1.934 0,-1.324 0.821,-1.851 1.536,-1.851 0.761,0 1.547,0.562 1.547,1.851 0,1.289 -0.739,1.934 -1.547,1.934 z m 6.578,-3.692 c 0.234,0 0.539,-0.046 0.808,-0.046 0.188,0 0.621,0.035 0.645,0.035 l -0.129,-0.692 c -0.762,0 -1.395,0.211 -1.723,0.352 -0.222,-0.188 -0.597,-0.352 -1.031,-0.352 -0.937,0 -1.734,0.785 -1.734,1.782 0,0.41 0.14,0.796 0.351,1.078 -0.316,0.445 -0.316,0.879 -0.316,0.925 0,0.293 0.105,0.61 0.293,0.832 -0.574,0.34 -0.703,0.844 -0.703,1.125 0,0.821 1.078,1.477 2.414,1.477 1.336,0 2.426,-0.644 2.426,-1.488 0,-1.512 -1.829,-1.512 -2.25,-1.512 h -0.961 c -0.141,0 -0.633,0 -0.633,-0.586 0,-0.117 0.047,-0.293 0.117,-0.387 0.234,0.164 0.586,0.317 0.996,0.317 0.984,0 1.746,-0.809 1.746,-1.781 0,-0.528 -0.246,-0.926 -0.363,-1.09 z m -1.43,2.239 c -0.41,0 -0.973,-0.258 -0.973,-1.16 0,-0.903 0.563,-1.161 0.973,-1.161 0.469,0 0.984,0.317 0.984,1.161 0,0.855 -0.515,1.16 -0.984,1.16 z m 0.492,2.062 c 0.235,0 1.465,0 1.465,0.75 0,0.481 -0.75,0.844 -1.641,0.844 -0.89,0 -1.664,-0.34 -1.664,-0.856 0,-0.035 0,-0.738 0.856,-0.738 z m 5.657,-8.215 c -0.34,0.328 -1.079,0.985 -1.583,2.332 -0.433,1.172 -0.503,2.321 -0.503,3.118 0,3.527 1.57,4.98 2.086,5.46 h 0.667 c -0.527,-0.527 -1.91,-1.933 -1.91,-5.46 0,-0.61 0.036,-1.887 0.481,-3.176 0.445,-1.266 1.066,-1.922 1.429,-2.274 z"
       style="fill:#1919ff;fill-opacity:1;fill-rule:nonzero;stroke:none"
       transform="scale(1.3333333)" />
    <path
       id="path81"
       d="m 239.715,160.012 h -0.856 l -1.453,6.75 h -0.011 l -1.946,-6.75 h -1.359 l -1.617,7.57 h 0.855 l 1.442,-6.75 h 0.011 l 1.946,6.75 h 1.371 z"
       style="fill:#1919ff;fill-opacity:1;fill-rule:nonzero;stroke:none"
       transform="scale(1.3333333)" />
    <path
       id="path82"
       d="m 241.316,170.312 c 0.352,-0.328 1.079,-0.996 1.582,-2.332 0.434,-1.171 0.516,-2.332 0.516,-3.128 0,-3.516 -1.57,-4.969 -2.098,-5.45 h -0.668 c 0.528,0.516 1.911,1.934 1.911,5.45 0,0.609 -0.036,1.886 -0.481,3.175 -0.445,1.266 -1.066,1.922 -1.43,2.285 z m 4.246,0 c 0.352,-0.328 1.079,-0.996 1.583,-2.332 0.433,-1.171 0.515,-2.332 0.515,-3.128 0,-3.516 -1.57,-4.969 -2.098,-5.45 h -0.667 c 0.527,0.516 1.91,1.934 1.91,5.45 0,0.609 -0.035,1.886 -0.481,3.175 -0.445,1.266 -1.066,1.922 -1.429,2.285 z"
       style="fill:#1919ff;fill-opacity:1;fill-rule:nonzero;stroke:none"
       transform="scale(1.3333333)" />
    <path
       id="path83"
       d="m 208.824,133.789 c 0,-0.727 -0.199,-2.238 -1.312,-2.238 -1.524,0 -3.2,3.07 -3.2,5.566 0,1.031 0.317,2.238 1.313,2.238 1.535,0 3.199,-3.128 3.199,-5.566 z m -3.351,1.488 c 0.187,-0.703 0.398,-1.57 0.832,-2.343 0.304,-0.539 0.703,-1.149 1.195,-1.149 0.539,0 0.598,0.703 0.598,1.324 0,0.528 -0.082,1.09 -0.352,2.168 z m 2.179,0.352 c -0.117,0.504 -0.351,1.43 -0.761,2.215 -0.387,0.738 -0.797,1.277 -1.266,1.277 -0.363,0 -0.586,-0.316 -0.586,-1.336 0,-0.457 0.059,-1.09 0.34,-2.156 z"
       style="fill:#006600;fill-opacity:1;fill-rule:nonzero;stroke:none"
       transform="scale(1.3333333)" />
    <path
       id="path84"
       d="m 212.23,131.059 c -0.339,0.328 -1.078,0.984 -1.582,2.332 -0.433,1.171 -0.503,2.32 -0.503,3.117 0,3.527 1.57,4.98 2.085,5.461 h 0.668 c -0.527,-0.528 -1.91,-1.934 -1.91,-5.461 0,-0.61 0.035,-1.887 0.481,-3.176 0.445,-1.266 1.066,-1.922 1.429,-2.273 z"
       style="fill:#006600;fill-opacity:1;fill-rule:nonzero;stroke:none"
       transform="scale(1.3333333)" />
    <path
       id="path85"
       d="m 221.805,131.668 h -0.856 l -1.453,6.75 h -0.012 l -1.945,-6.75 h -1.359 l -1.618,7.57 h 0.856 l 1.441,-6.75 h 0.012 l 1.945,6.75 h 1.372 z"
       style="fill:#006600;fill-opacity:1;fill-rule:nonzero;stroke:none"
       transform="scale(1.3333333)" />
    <path
       id="path86"
       d="m 223.406,141.969 c 0.352,-0.328 1.078,-0.996 1.582,-2.332 0.434,-1.172 0.516,-2.332 0.516,-3.129 0,-3.516 -1.57,-4.969 -2.098,-5.449 h -0.668 c 0.528,0.515 1.91,1.933 1.91,5.449 0,0.609 -0.035,1.887 -0.48,3.176 -0.445,1.265 -1.066,1.921 -1.43,2.285 z"
       style="fill:#006600;fill-opacity:1;fill-rule:nonzero;stroke:none"
       transform="scale(1.3333333)" />
    <path
       id="path87"
       d="m 208.824,51.586 c 0,-0.727 -0.199,-2.238 -1.312,-2.238 -1.524,0 -3.2,3.07 -3.2,5.566 0,1.031 0.317,2.238 1.313,2.238 1.535,0 3.199,-3.129 3.199,-5.566 z m -3.351,1.488 c 0.187,-0.703 0.398,-1.57 0.832,-2.344 0.304,-0.539 0.703,-1.148 1.195,-1.148 0.539,0 0.598,0.703 0.598,1.324 0,0.528 -0.082,1.09 -0.352,2.168 z m 2.179,0.352 c -0.117,0.504 -0.351,1.429 -0.761,2.215 -0.387,0.738 -0.797,1.277 -1.266,1.277 -0.363,0 -0.586,-0.316 -0.586,-1.336 0,-0.457 0.059,-1.09 0.34,-2.156 z"
       style="fill:#006699;fill-opacity:1;fill-rule:nonzero;stroke:none"
       transform="scale(1.3333333)" />
    <path
       id="path88"
       d="m 212.23,48.855 c -0.339,0.329 -1.078,0.985 -1.582,2.333 -0.433,1.171 -0.503,2.32 -0.503,3.117 0,3.527 1.57,4.98 2.085,5.461 h 0.668 c -0.527,-0.528 -1.91,-1.934 -1.91,-5.461 0,-0.61 0.035,-1.887 0.481,-3.176 0.445,-1.266 1.066,-1.922 1.429,-2.274 z"
       style="fill:#006699;fill-opacity:1;fill-rule:nonzero;stroke:none"
       transform="scale(1.3333333)" />
    <path
       id="path89"
       d="m 221.805,49.465 h -0.856 l -1.453,6.75 h -0.012 l -1.945,-6.75 h -1.359 l -1.618,7.57 h 0.856 l 1.441,-6.75 h 0.012 l 1.945,6.75 h 1.372 z"
       style="fill:#006699;fill-opacity:1;fill-rule:nonzero;stroke:none"
       transform="scale(1.3333333)" />
    <path
       id="path90"
       d="m 225.648,49.465 h -0.82 v 7.57 h 0.82 z m 6.032,5.168 c 0,-1.465 -1.09,-2.625 -2.391,-2.625 -1.348,0 -2.402,1.195 -2.402,2.625 0,1.441 1.113,2.519 2.39,2.519 1.313,0 2.403,-1.101 2.403,-2.519 z m -2.403,1.828 c -0.75,0 -1.535,-0.609 -1.535,-1.934 0,-1.324 0.82,-1.851 1.535,-1.851 0.762,0 1.547,0.562 1.547,1.851 0,1.289 -0.738,1.934 -1.547,1.934 z m 6.575,-3.691 c 0.234,0 0.539,-0.047 0.808,-0.047 0.188,0 0.621,0.035 0.645,0.035 l -0.129,-0.692 c -0.762,0 -1.395,0.211 -1.723,0.352 -0.223,-0.188 -0.598,-0.352 -1.031,-0.352 -0.938,0 -1.734,0.786 -1.734,1.782 0,0.41 0.14,0.797 0.351,1.078 -0.316,0.445 -0.316,0.879 -0.316,0.926 0,0.293 0.105,0.609 0.293,0.832 -0.575,0.339 -0.704,0.843 -0.704,1.125 0,0.82 1.079,1.476 2.415,1.476 1.335,0 2.425,-0.644 2.425,-1.488 0,-1.512 -1.828,-1.512 -2.25,-1.512 h -0.961 c -0.14,0 -0.632,0 -0.632,-0.586 0,-0.117 0.046,-0.293 0.117,-0.387 0.234,0.165 0.586,0.317 0.996,0.317 0.984,0 1.746,-0.809 1.746,-1.781 0,-0.528 -0.246,-0.926 -0.363,-1.09 z m -1.43,2.238 c -0.41,0 -0.973,-0.258 -0.973,-1.16 0,-0.903 0.563,-1.16 0.973,-1.16 0.469,0 0.984,0.316 0.984,1.16 0,0.855 -0.515,1.16 -0.984,1.16 z m 0.492,2.062 c 0.234,0 1.465,0 1.465,0.75 0,0.481 -0.75,0.844 -1.641,0.844 -0.89,0 -1.664,-0.34 -1.664,-0.855 0,-0.036 0,-0.739 0.856,-0.739 z m 5.656,-8.215 c -0.34,0.329 -1.078,0.985 -1.582,2.333 -0.433,1.171 -0.504,2.32 -0.504,3.117 0,3.527 1.571,4.98 2.086,5.461 h 0.668 c -0.527,-0.528 -1.91,-1.934 -1.91,-5.461 0,-0.61 0.035,-1.887 0.481,-3.176 0.445,-1.266 1.066,-1.922 1.429,-2.274 z"
       style="fill:#006699;fill-opacity:1;fill-rule:nonzero;stroke:none"
       transform="scale(1.3333333)" />
    <path
       id="path91"
       d="m 250.145,49.465 h -0.856 l -1.453,6.75 h -0.012 l -1.945,-6.75 h -1.359 l -1.618,7.57 h 0.856 l 1.441,-6.75 h 0.012 l 1.945,6.75 h 1.371 z"
       style="fill:#006699;fill-opacity:1;fill-rule:nonzero;stroke:none"
       transform="scale(1.3333333)" />
    <path
       id="path92"
       d="m 251.746,59.766 c 0.352,-0.328 1.078,-0.996 1.582,-2.332 0.434,-1.172 0.516,-2.332 0.516,-3.129 0,-3.516 -1.571,-4.969 -2.098,-5.45 h -0.668 c 0.527,0.516 1.91,1.934 1.91,5.45 0,0.609 -0.035,1.886 -0.48,3.175 -0.446,1.266 -1.067,1.922 -1.43,2.286 z m 4.242,0 c 0.352,-0.328 1.078,-0.996 1.582,-2.332 0.434,-1.172 0.516,-2.332 0.516,-3.129 0,-3.516 -1.57,-4.969 -2.098,-5.45 h -0.668 c 0.528,0.516 1.91,1.934 1.91,5.45 0,0.609 -0.035,1.886 -0.48,3.175 -0.445,1.266 -1.066,1.922 -1.43,2.286 z"
       style="fill:#006699;fill-opacity:1;fill-rule:nonzero;stroke:none"
       transform="scale(1.3333333)" />
    <path
       id="path93"
       d="m 86.934,3.898 c 0,-0.726 -0.2,-2.238 -1.313,-2.238 -1.523,0 -3.199,3.07 -3.199,5.567 0,1.031 0.316,2.238 1.312,2.238 1.536,0 3.2,-3.129 3.2,-5.567 z m -3.352,1.489 c 0.188,-0.703 0.398,-1.571 0.832,-2.344 0.305,-0.539 0.703,-1.148 1.195,-1.148 0.539,0 0.598,0.703 0.598,1.324 0,0.527 -0.082,1.09 -0.352,2.168 z m 2.18,0.351 C 85.645,6.242 85.41,7.168 85,7.953 84.613,8.691 84.203,9.23 83.734,9.23 c -0.363,0 -0.586,-0.316 -0.586,-1.335 0,-0.457 0.059,-1.09 0.34,-2.157 z"
       style="fill:#996600;fill-opacity:1;fill-rule:nonzero;stroke:none"
       transform="scale(1.3333333)" />
    <path
       id="path94"
       d="M 90.34,1.168 C 90,1.496 89.262,2.152 88.758,3.5 c -0.434,1.172 -0.504,2.32 -0.504,3.117 0,3.528 1.57,4.981 2.086,5.461 h 0.668 c -0.528,-0.527 -1.91,-1.933 -1.91,-5.461 0,-0.609 0.035,-1.887 0.48,-3.176 0.445,-1.265 1.067,-1.921 1.43,-2.273 z"
       style="fill:#996600;fill-opacity:1;fill-rule:nonzero;stroke:none"
       transform="scale(1.3333333)" />
    <path
       id="path95"
       d="m 99.914,1.777 h -0.855 l -1.454,6.75 h -0.011 l -1.946,-6.75 h -1.359 l -1.617,7.571 h 0.855 l 1.442,-6.75 h 0.011 l 1.946,6.75 h 1.371 z"
       style="fill:#996600;fill-opacity:1;fill-rule:nonzero;stroke:none"
       transform="scale(1.3333333)" />
    <path
       id="path96"
       d="m 102.492,4.781 c -0.094,0 -0.187,0 -0.281,0 h -0.914 l 1.242,-1.09 c 0.141,-0.129 0.527,-0.421 0.68,-0.55 0.351,-0.317 0.82,-0.727 0.82,-1.418 0,-0.903 -0.668,-1.723 -1.805,-1.723 -0.843,0 -1.371,0.445 -1.64,1.266 l 0.375,0.468 c 0.187,-0.668 0.457,-1.183 1.148,-1.183 0.68,0 1.184,0.469 1.184,1.183 0,0.657 -0.387,1.032 -0.867,1.489 -0.164,0.164 -0.586,0.515 -0.762,0.679 -0.223,0.211 -0.774,0.739 -1.008,0.938 v 0.551 h 3.375 v -0.61 z"
       style="fill:#996600;fill-opacity:1;fill-rule:nonzero;stroke:none"
       transform="scale(1.3333333)" />
    <path
       id="path97"
       d="m 106.254,12.078 c 0.351,-0.328 1.078,-0.996 1.582,-2.332 0.434,-1.172 0.516,-2.332 0.516,-3.129 0,-3.515 -1.571,-4.969 -2.098,-5.449 h -0.668 c 0.527,0.516 1.91,1.934 1.91,5.449 0,0.61 -0.035,1.887 -0.48,3.176 -0.446,1.266 -1.067,1.922 -1.43,2.285 z"
       style="fill:#996600;fill-opacity:1;fill-rule:nonzero;stroke:none"
       transform="scale(1.3333333)" />
    <path
       id="path98"
       d="m 52.918,4.051 c 0,-0.727 -0.199,-2.239 -1.313,-2.239 -1.523,0 -3.199,3.071 -3.199,5.567 0,1.031 0.317,2.238 1.313,2.238 1.535,0 3.199,-3.129 3.199,-5.566 z m -3.352,1.488 c 0.188,-0.703 0.399,-1.57 0.832,-2.344 0.305,-0.539 0.704,-1.148 1.196,-1.148 0.539,0 0.597,0.703 0.597,1.324 0,0.527 -0.082,1.09 -0.351,2.168 z m 2.18,0.352 c -0.117,0.504 -0.351,1.429 -0.762,2.214 -0.386,0.739 -0.796,1.278 -1.265,1.278 -0.364,0 -0.586,-0.317 -0.586,-1.336 0,-0.457 0.058,-1.09 0.34,-2.156 z"
       style="fill:#990066;fill-opacity:1;fill-rule:nonzero;stroke:none"
       transform="scale(1.3333333)" />
    <path
       id="path99"
       d="m 56.324,1.32 c -0.34,0.328 -1.078,0.985 -1.582,2.332 -0.433,1.172 -0.504,2.321 -0.504,3.118 0,3.527 1.571,4.98 2.086,5.46 h 0.668 c -0.527,-0.527 -1.91,-1.933 -1.91,-5.46 0,-0.61 0.035,-1.887 0.48,-3.176 0.446,-1.266 1.067,-1.922 1.43,-2.274 z m 3.192,6.129 -1.348,1.348 V 9.5 h 4.348 V 8.727 h -1.981 c -0.14,0 -0.269,0.011 -0.398,0.011 h -1.184 c 0.34,-0.304 1.172,-1.125 1.512,-1.441 0.211,-0.199 0.762,-0.656 0.973,-0.856 0.492,-0.492 1.078,-1.066 1.078,-1.992 0,-1.254 -0.879,-2.344 -2.321,-2.344 -1.242,0 -1.863,0.844 -2.121,1.782 0.129,0.187 0.188,0.258 0.211,0.293 0.024,0.023 0.129,0.164 0.235,0.316 0.222,-0.844 0.527,-1.699 1.523,-1.699 1.019,0 1.582,0.82 1.582,1.676 0,0.925 -0.621,1.547 -1.266,2.203 z"
       style="fill:#990066;fill-opacity:1;fill-rule:nonzero;stroke:none"
       transform="scale(1.3333333)" />
    <path
       id="path100"
       d="M 69.422,0.012 H 68.754 L 67.699,4.91 H 67.688 L 66.129,0.012 h -1.078 l -1.184,5.531 h 0.668 l 1.043,-4.898 h 0.012 l 1.57,4.898 h 1.078 z"
       style="fill:#990066;fill-opacity:1;fill-rule:nonzero;stroke:none"
       transform="scale(1.3333333)" />
    <path
       id="path101"
       d="m 71.461,12.23 c 0.351,-0.328 1.078,-0.996 1.582,-2.332 0.434,-1.171 0.516,-2.332 0.516,-3.128 0,-3.516 -1.571,-4.969 -2.098,-5.45 h -0.668 c 0.527,0.516 1.91,1.934 1.91,5.45 0,0.609 -0.035,1.886 -0.48,3.175 -0.446,1.266 -1.067,1.922 -1.43,2.285 z"
       style="fill:#990066;fill-opacity:1;fill-rule:nonzero;stroke:none"
       transform="scale(1.3333333)" />
  </g>
</svg>
